# xmcd
#
# Track frame offsets: 
#        150
#        12610
#        27797
#        45375
#        60192
#        76222
#        88882
#        102635
#        120757
#        139545
#
# Disc length: 2100 seconds
#
# Revision: 2
# Processed by: cddbd v1.5PL3 Copyright (c) Steve Scherf et al.
# Submitted via: ExactAudioCopy v0.95a3
#
DISCID=7008320a
DTITLE=Brady Seals - Brady Seals
DYEAR=1998
DGENRE=Country
TTITLE0=Whole Lotta Hurt
TTITLE1=Country As A Boy Can Be
TTITLE2=The Best Is Yet To Come
TTITLE3=Summer Night Lovin' You
TTITLE4=I Fell
TTITLE5=Love You Too Much
TTITLE6=You're My Kind Of Woman
TTITLE7=All My Devotion
TTITLE8=Kickin' And Screamin' 
TTITLE9=I Get High Lovin' You
EXTD=
EXTT0=
EXTT1=
EXTT2=
EXTT3=
EXTT4=
EXTT5=
EXTT6=
EXTT7=
EXTT8=
EXTT9=
PLAYORDER=
